<?xml version="1.0" encoding="utf-8"?>
<!-- Generator: Adobe Illustrator 16.0.4, SVG Export Plug-In . SVG Version: 6.00 Build 0)  -->
<!DOCTYPE svg PUBLIC "-//W3C//DTD SVG 1.1//EN" "http://www.w3.org/Graphics/SVG/1.1/DTD/svg11.dtd">
<svg version="1.1" id="Layer_1" xmlns="http://www.w3.org/2000/svg" xmlns:xlink="http://www.w3.org/1999/xlink" x="0px" y="0px"
	 width="434.978px" height="170.991px" viewBox="0 0 434.978 170.991" enable-background="new 0 0 434.978 170.991"
	 xml:space="preserve">
<path style="fill: rgba(255,255,255,.5)" d="M351.946,88.913c-2.199-0.227-4.455-0.444-6.787-0.65c-0.074,0.061-0.143,0.127-0.217,0.187
	c3.17-2.528,5.416-5.891,6.928-9.949c3.605-9.681-0.539-18.93-2.201-28.279c-0.162-0.919-1.73-1.957-2.838-2.276
	c-4.773-1.376-9.598-2.605-14.447-3.69c-3.586-0.803-7.762-0.376-10.783-2.078c-25.623-14.435-53.635-18.019-82.357-18.732
	c-17.152-0.388-30.92,7.601-44.007,17.685c-3.003,2.315-7.226,4.008-10.986,4.22c-19.833,1.119-38.847,5.237-57.186,12.984
	c-10.96,4.63-12.557,11.019-12.131,20.799c0.548,12.6,4.598,15.672,17.069,17.945c2.992,0.546,6.406,1.857,8.458,3.957
	c9.273,9.494,21.391,10.342,31.1,2.235c11.752,6.278,56.292,10.95,109.451,10.95c27.311,0,52.152-1.256,71.504-3.322
	c4.957,6.517,12.244,8.072,17.66,9.223c6.734,1.431,8.443,2.168,8.443,5.599c0,0.523-0.131,1.347-1.271,2.447
	c-15.064,14.549-126.988,17.075-374.242,8.45c-1.637-0.027-3.045,1.238-3.103,2.894s1.237,3.045,2.894,3.103
	c98.34,3.431,171.635,4.95,226.179,4.95c109.01-0.001,143.109-6.069,152.439-15.081c2.061-1.988,3.104-4.264,3.104-6.763
	c0-8.664-7.316-10.218-13.195-11.467c-4.014-0.853-8.094-1.724-11.398-4.231c20.32-2.595,32.975-6.165,33.477-10.05
	C394.415,92.876,376.495,90.666,351.946,88.913z M156.996,104.573c-9.145-0.214-17.219-8.203-17.4-17.217
	c-0.187-9.165,8.384-17.873,17.442-17.723c9.615,0.159,17.595,8.069,17.606,17.452C174.656,96.357,166.149,104.787,156.996,104.573z
	 M303.249,104.565c-9.607-0.01-18.541-8.77-18.752-18.387c-0.219-9.898,8.736-18.885,18.781-18.845
	c10.053,0.039,18.887,8.976,18.645,18.865C321.684,95.962,312.926,104.575,303.249,104.565z M337.954,87.527
	c-2.973,1.179-6.033,2.14-9.156,3.237c-3.34-19.971-12.627-28.954-27.982-27.642c-13.752,1.175-22.037,11.878-22.334,29.951h-98.736
	c0.212-16.048-7.922-27.118-20.911-27.763c-14.004-0.694-22.471,8.746-24.312,27.108c-10.542-0.517-13.271-2.722-14.982-12.109
	c-1.487-8.151,1.731-14.403,9.361-17.887c18.185-8.302,37.486-11.548,57.271-12.841c3.253-0.213,7.295-0.975,9.47-3.054
	c18.252-17.46,39.982-20.29,63.998-17.741c21.432,2.273,41.557,7.531,60.59,17.64c3.59,1.905,8.438,1.585,12.732,1.99
	c10.977,1.034,13.338,3.409,15.354,15.962C350.086,75.409,346.153,84.275,337.954,87.527z M250.102,36.493
	c0.104,1.088,0.422,8.954,0.398,12.601c-0.023,3.59-3.996,4.6-5.625,4.75c-11.756,1.084-23.871,0.39-36.257,0.529
	c-1.491,0.017-6.993,0.721-5.118-7.279c0.377-1.608,0.042-1.416-0.318-0.871c-1.33,2.109-2.832,5.006-1.962,6.63
	c0.979,1.824,2.435,3.435,4.298,3.518c5.941,0.266,19.241,0.636,28.868,0.627c18.553-0.014,19.496-1.2,16.518-19.447
	C250.872,37.363,250,35.403,250.102,36.493z M292.592,40.688c0,0-1.801-0.51-1.102,0.151c0.701,0.661,7.107,5.389,6.385,8.317
	S285.793,51.409,278,52.031c-19.562,1.562-17.486,1.51-20.164-12.654c-0.273-1.283-0.529-0.223-0.648,0.279
	c-0.307,1.281,0.1,8.902,0.361,10.061c0.453,1.993,2.762,5.106,6.512,5.051c12.002-0.178,19.807-0.529,31.766-1.543
	c4.977-0.421,5.631-3.997,2.506-8.089C296.973,43.354,294.084,41.425,292.592,40.688z"/>
</svg>
