<?xml version="1.0" encoding="utf-8"?>
<!-- Generator: Adobe Illustrator 16.0.4, SVG Export Plug-In . SVG Version: 6.00 Build 0)  -->
<!DOCTYPE svg PUBLIC "-//W3C//DTD SVG 1.1//EN" "http://www.w3.org/Graphics/SVG/1.1/DTD/svg11.dtd">
<svg version="1.1" id="Layer_1" xmlns="http://www.w3.org/2000/svg" xmlns:xlink="http://www.w3.org/1999/xlink" x="0px" y="0px"
	 width="100px" height="100px" viewBox="0 0 100 100" enable-background="new 0 0 100 100" xml:space="preserve">
<g>
	<path style="fill: currentColor;" d="M38.105,90.126c-0.917,0-1.207-1.19-0.646-2.645L50.084,54.77c0.561-1.454-0.255-2.645-1.814-2.645H29.939
		c-1.559,0-2.366-1.187-1.794-2.637l14.586-36.978c0.572-1.45,2.315-2.637,3.875-2.637h16.998c1.559,0,2.14,1.07,1.292,2.378
		L49.648,35.747c-0.849,1.308-0.268,2.378,1.292,2.378h19.122c1.559,0,2.149,1.076,1.312,2.391l-30.078,47.22
		C40.457,89.05,39.021,90.126,38.105,90.126z"/>
</g>
</svg>
