<?xml version="1.0" encoding="utf-8"?>
<!-- Generator: Adobe Illustrator 16.0.4, SVG Export Plug-In . SVG Version: 6.00 Build 0)  -->
<!DOCTYPE svg PUBLIC "-//W3C//DTD SVG 1.1//EN" "http://www.w3.org/Graphics/SVG/1.1/DTD/svg11.dtd">
<svg version="1.1" id="Layer_1" xmlns="http://www.w3.org/2000/svg" xmlns:xlink="http://www.w3.org/1999/xlink" x="0px" y="0px"
	 width="434.978px" height="170.991px" viewBox="0 0 434.978 170.991" enable-background="new 0 0 434.978 170.991"
	 xml:space="preserve">
<path style="fill: rgba(255,255,255,.5)" d="M174.122,68.057c-3.862-1.702-7.704-3.459-11.611-5.053c-0.611-0.249-1.873-0.031-2.239,0.437
	c-1.833,2.339-3.468,4.833-5.554,7.819c4.796,0.357,8.977,0.766,13.166,0.955C171.814,72.393,172.54,71.812,174.122,68.057z
	 M364.489,107.74c1.689-0.249,3.262-1.284,4.889-1.958c-0.033-0.403-0.066-0.808-0.1-1.211c-8.707-3.497-18.1-3.489-27.27-4.462
	c-9.338-0.991-18.721-1.568-28.086-2.327c0.99-2.564,2.08-4.971,2.861-7.475c2.768-8.881,3.23-18.008,2.746-27.233
	c-0.043-0.809,0.4-1.683,0.756-2.463c0.539-1.182,1.773-2.338,1.715-3.452c-0.361-6.9-1.424-13.71-4.852-19.852
	c-2.727-4.883-6.629-8.48-12.299-9.659c-2.932-0.608-5.914-0.976-8.861-1.52c-6.705-1.235-13.373-2.289-20.139-0.149
	c-1.602,0.507-3.482,0.297-5.219,0.181c-8.797-0.587-17.582-1.405-26.385-1.818c-3.844-0.18-7.723,0.416-11.727,0.668
	c-0.281-2.186-0.738-4.328-3.418-4.253c-7.232,0.201-14.48,0.315-21.691,0.867c-7.814,0.598-14.517,4.306-21.379,7.868
	c-8.284,4.3-15.688,9.518-21.732,16.551c-6.092,7.086-11.849,14.46-17.875,21.604c-2.92,3.462-4.321,7.409-4.74,11.818
	c0,0,0,18.695,2.957,21.157c0,0,4.817,7.018,19.778,9.334c14.569,2.256,21.373,3.182,34.633,4.566
	c28.088,2.934,65.323-0.342,97.975-0.999c9.49-0.191,18.977-0.805,28.455-1.529c4.264,7.272,12.098,8.898,18.174,10.156
	c7.488,1.551,9.518,2.503,9.518,6.244c0,0.807-0.172,2.043-1.648,3.469c-14.266,13.778-108.697,15.792-348.421,7.429
	c-1.637-0.016-3.045,1.238-3.103,2.894s1.237,3.045,2.894,3.103c97.48,3.4,168.22,4.947,219.615,4.947
	c95.486-0.001,124.16-5.342,133.186-14.057c2.307-2.229,3.479-4.848,3.479-7.784c0-9.158-7.93-10.8-14.301-12.119
	c-4.635-0.96-9.105-1.888-12.219-4.846c2.836-0.229,5.67-0.459,8.504-0.686C348.967,110.121,356.731,108.885,364.489,107.74z
	 M229.649,25.653c-11.873,3.221-22.962,7.877-32.031,16.711c1.086-0.407,2.24-0.69,3.245-1.244c3.318-1.83,6.529-3.86,9.879-5.628
	c10.223-5.394,20.934-8.683,32.707-7.87c6.775,0.469,13.584,0.423,20.377,0.647c1.193,0.039,2.379,0.268,3.658,0.863
	c-1.559,0.744-3.092,1.543-4.676,2.224c-8.318,3.568-16.092,8.062-22.848,14.103c-2.643,2.362-5.592,3.31-8.92,3.258
	c-9.617-0.149-19.232-0.376-28.846-0.681c-4.584-0.146-9.162-0.506-13.738-0.831c-1.562-0.11-3.108-0.41-4.661-0.624
	c-0.177-0.334-0.353-0.668-0.528-1.002c3.713-2.851,7.072-6.455,11.211-8.402c10.023-4.715,20.393-8.697,30.668-12.864
	C226.598,23.725,228.553,22.741,229.649,25.653z M147.055,73.919c2.796-4.547,6.374-8.619,9.671-12.852
	c2.548-3.271,5.063-6.584,7.814-9.682c10.832-12.198,23.749-21.24,39.681-25.481c3.547-0.944,7.233-1.367,10.856-2.03
	c0.076,0.224,0.154,0.446,0.23,0.669c-0.801,0.325-1.6,0.66-2.404,0.976c-8.39,3.287-16.738,6.684-23.761,12.523
	c-2.02,1.679-3.884,3.616-5.514,5.676c-2.232,2.821-1.577,4.711,1.942,5.529c2.733,0.636,5.572,1.005,8.378,1.112
	c12.521,0.478,25.046,0.831,37.57,1.204c4.977,0.148,9.125-1.228,12.713-5.146c2.486-2.716,5.928-4.771,9.283-6.436
	c8.914-4.423,17.895-8.92,27.76-10.734c3.58-0.658,7.475,0.351,11.221,0.672c1.279,0.109,2.543,0.44,3.812,0.671
	c-9.215,3.444-17.465,8.263-24.643,14.832c-8.277,7.578-14.686,16.66-20.471,26.199c-3.369,5.555-7.104,10.787-12.711,14.302
	c-1.178,0.738-2.773,1.204-4.156,1.161c-22.328-0.687-44.658-1.383-66.978-2.309c-5.518-0.229-11.092-0.876-16.477-2.067
	C145.603,81.542,144.268,78.45,147.055,73.919z M279.782,99.484c-3.367,2.474-6.996,4.229-10.783,5.523v0.002
	c0,0-0.023,0.007-0.049,0.015c-2.541,0.865-5.152,1.523-7.805,2.043c-8.002,1.887-21.064,4.411-34.17,4.555
	c-24.667,0.27-44.971-3.532-56.333-6c-11.125-2.416-22.001-3.916-23.147-10.73c-0.511-1.505-0.518-4.811-0.576-5.761
	c-0.012-0.143-0.023-0.285-0.034-0.43c-0.144-1.327-0.242-2.255-0.247-2.887c-0.062-0.536-0.136-1.072-0.239-1.606
	c0.459,0.211,0.92,0.401,1.38,0.588c0.317,0.099,0.712,0.258,1.199,0.455c0.004,0.001,0.009,0.003,0.013,0.004
	c9.653,1.701,15.433,2.621,46.735,3.226c1.289,0.025,21.577,0.556,29.167,0.726c11.166,0.25,18.203-0.498,23.322-6.764
	c5.234-6.405,9.76-13.385,14.756-19.99c7.807-10.321,16.748-19.392,29.039-24.337c4.066-1.637,8.355-2.717,12.535-4.072
	c3.598-1.165,6.346,0.521,8.375,3.061c4.125,5.163,5.131,11.388,5.441,17.472c-4.531,0.58-8.891,0.69-13.002,1.753
	c-10.072,2.603-15.633,9.893-16.227,20.312c-0.18,3.165-0.721,6.31-0.914,9.475C287.852,92.15,284.348,96.131,279.782,99.484z
	 M304.418,101.678c-6.018,3.921-11.717,3.059-16.469-2.773c4.166-5.109,5.107-11.152,5.537-17.38
	c0.201-2.893,0.516-5.786,0.957-8.651c0.812-5.273,3.996-8.852,8.83-10.641c3.424-1.267,7.115-1.857,10.73-2.522
	c0.598-0.109,2.02,0.936,2.035,1.477c0.303,10.69,0,21.346-4.221,31.407C310.272,96.282,307.87,99.429,304.418,101.678z
	 M235.422,76.678c0.656-0.015,1.602-0.848,1.879-1.522c0.973-2.35,1.709-4.796,2.674-7.604c-6.229,0.95-11.879,1.783-17.518,2.686
	c-2.848,0.455-3.922,2.246-3.553,6.511C224.358,76.747,229.893,76.799,235.422,76.678z M300.022,67.718
	c4.316,0.683,5.24,1.517,5.049,6.147c-0.133,3.202-0.891,6.407-1.66,9.54c-0.291,1.178-1.191,2.499-2.203,3.117
	c-0.848,0.518-2.262,0.106-3.316,0.106c1.635,2.529,4.854,2.915,6.488,0.218c3.326-5.483,4.441-11.485,2.318-17.702
	C305.653,66.083,302.45,65.542,300.022,67.718z M300.565,80.725c0.826-0.018,1.617-1.714,2.854-3.136
	c-1.207-1.568-1.932-3.473-3.037-3.728c-1.918-0.442-2.193,1.528-2.207,3.042C298.157,78.663,298.188,80.776,300.565,80.725z
	 M297.161,50.812c0.391-0.129,0.057-2.572-0.037-3.94c-0.027-0.403-0.283-0.931-0.604-1.144c-0.689-0.455-1.488-0.742-2.242-1.099
	c-0.139,0.312-0.275,0.623-0.414,0.936c0.25,0.84,0.379,1.742,0.775,2.506C295.243,49.237,294.899,51.563,297.161,50.812z
	 M285.829,50.027c-1.135,0.748-1.947,1.283-2.703,1.78c1.379,1.995,2.559,3.701,3.785,5.476c0.74-0.562,1.498-1.138,2.533-1.926
	C288.241,53.584,287.094,51.894,285.829,50.027z M291.635,53.46c0.279,0.097,0.559,0.192,0.838,0.289
	c0.34-0.722,1.141-1.635,0.936-2.13c-0.715-1.72-1.76-3.307-2.793-4.868c-0.033-0.052-1.295,0.707-1.93,1.059
	c0.615,1.15,1.078,1.996,1.521,2.851C290.692,51.59,291.159,52.526,291.635,53.46z"/>
</svg>
