<?xml version="1.0" encoding="utf-8"?>
<!-- Generator: Adobe Illustrator 16.0.4, SVG Export Plug-In . SVG Version: 6.00 Build 0)  -->
<!DOCTYPE svg PUBLIC "-//W3C//DTD SVG 1.1//EN" "http://www.w3.org/Graphics/SVG/1.1/DTD/svg11.dtd">
<svg version="1.1" id="Layer_1" xmlns="http://www.w3.org/2000/svg" xmlns:xlink="http://www.w3.org/1999/xlink" x="0px" y="0px"
	 height="5rem" viewBox="0 0 500 400" enable-background="new 0 0 500 400" xml:space="preserve">
<g>
	<g>
		<path fill="#000000" stroke="#FFFFFF" stroke-width="4" stroke-miterlimit="10" d="M178.208,252.61
			c0,0-0.676,22.336,21.335,32.312c34.021,15.422,124.12,29.967,153.333-10.033c-14.002-22.596-60.254-46.488-69.254-52.893
			c-24.343-17.32-23.657,9.926-40.368,8.926s-66.711-8.926-66.711-8.926L178.208,252.61z"/>
		<path fill="#000000" stroke="#FFFFFF" stroke-width="4" stroke-miterlimit="10" d="M178.208,252.61
			c0,0-44.203-8.424-40.544-83.602c-0.659-51.822,52.37-77.656,65.37-83.342c10.123,12.127,21,44.686,21,44.686s17.5,82.5,11,98
			S178.208,252.61,178.208,252.61z"/>
		<path fill="#000000" stroke="#FFFFFF" stroke-width="4" stroke-miterlimit="10" d="M210.209,258.038
			c18.999,2,62.667,2.666,101.999-33.334c39.334-36,40.668-128,40.668-128s-62.334-0.334-129.334,36.666
			s-59.464,71.83-58.219,83.334c1.219,11.26,4.552,24.666,12.885,35.906C186.122,253.37,191.21,256.038,210.209,258.038z"/>
		<path fill="#FFFFFF" d="M281.14,182.208c-3.486-4.855-4.271-4.938-8.696-1.758c-4.104,3.045-11.509,8.441-15.486,11.369
			c-2.932-4.088-6.106-8.521-9.057-12.643c4.143-3.01,10.923-7.912,14.896-10.68c4.677-3.465,4.677-3.465,1.189-8.318
			c-3.487-4.855-4.271-4.936-8.697-1.756c-3.811,2.826-10.466,7.68-14.582,10.703c-2.104-2.939-3.548-4.957-3.832-5.354
			c-1.672-2.334-4.34-2.783-6.654-1.119c-3.381,2.428-6.766,4.844-10.135,7.285c-1.506,1.094-3.058,2.146-4.449,3.377
			c-4.771,4.211-7.984,9.443-9.558,15.594c-1.044,4.084-1.417,8.281-0.621,12.461c0.517,2.715,1.342,5.371,2.027,8.055
			c0.261,0.523,0.58,1.127,0.927,1.76c-10.441,7.414-26.641,21.484-39.537,44.186c-21.322,37.531-22.911,50.771-15.17,42.703
			c4.01-4.178,22.008-56.744,60.205-79.42c0.562,0.543,1.144,1.066,1.765,1.529c3.677,3.238,7.901,5.48,12.614,6.758
			c2.959,0.805,5.992,1.111,9.072,1.002c6.098-0.219,11.668-2.01,16.656-5.51c4.18-2.934,8.258-6.016,12.467-8.902
			c2.319-1.592,2.967-4.508,1.134-6.9c-0.274-0.359-1.563-2.141-3.458-4.775c3.993-2.904,11.517-8.354,15.79-11.33
			C284.628,187.062,284.628,187.062,281.14,182.208z"/>
	</g>
</g>
</svg>
