<?xml version="1.0" encoding="utf-8"?>
<!-- Generator: Adobe Illustrator 16.0.4, SVG Export Plug-In . SVG Version: 6.00 Build 0)  -->
<!DOCTYPE svg PUBLIC "-//W3C//DTD SVG 1.1//EN" "http://www.w3.org/Graphics/SVG/1.1/DTD/svg11.dtd">
<svg version="1.1" id="Layer_1" xmlns="http://www.w3.org/2000/svg" xmlns:xlink="http://www.w3.org/1999/xlink" x="0px" y="0px"
	 width="500px" height="500px" viewBox="0 0 500 500" enable-background="new 0 0 500 500" xml:space="preserve">
<g>
	<g>
		<path fill="#FFFFFF" d="M37.568,388.562c-1.693-0.648-3.213-1.357-4.557-2.131c-1.345-0.771-2.491-1.691-3.437-2.764
			c-0.947-1.07-1.681-2.354-2.204-3.848c-0.522-1.492-0.784-3.285-0.784-5.377c0-2.541,0.436-4.781,1.308-6.725
			c0.87-1.941,2.103-3.572,3.697-4.893c1.594-1.318,3.511-2.316,5.752-2.988s4.756-1.008,7.546-1.008
			c2.539,0,4.917,0.223,7.134,0.672c2.216,0.447,4.544,1.096,6.984,1.941c-0.299,2.891-1.096,5.729-2.39,8.518
			c-0.747-0.299-1.508-0.598-2.279-0.896c-0.772-0.299-1.594-0.549-2.465-0.748c-0.872-0.197-1.855-0.359-2.951-0.484
			s-2.341-0.188-3.734-0.188c-0.848,0-1.707,0.074-2.578,0.225c-0.871,0.148-1.656,0.424-2.353,0.82
			c-0.698,0.4-1.271,0.984-1.719,1.756c-0.448,0.773-0.672,1.781-0.672,3.025c0,0.998,0.174,1.83,0.522,2.504
			c0.349,0.672,0.822,1.244,1.42,1.717c0.598,0.475,1.27,0.873,2.017,1.195c0.747,0.326,1.494,0.635,2.241,0.934l4.482,1.719
			c1.892,0.748,3.61,1.52,5.154,2.316c1.543,0.797,2.851,1.781,3.922,2.951c1.07,1.17,1.905,2.59,2.503,4.258
			s0.896,3.723,0.896,6.162c0,2.541-0.461,4.855-1.382,6.947c-0.923,2.092-2.254,3.885-3.997,5.379
			c-1.744,1.494-3.897,2.666-6.462,3.512c-2.565,0.846-5.517,1.27-8.853,1.27c-1.644,0-3.113-0.049-4.407-0.148
			c-1.296-0.102-2.528-0.262-3.698-0.486c-1.171-0.225-2.328-0.51-3.474-0.859c-1.146-0.348-2.341-0.771-3.586-1.27
			c0.149-1.443,0.423-2.951,0.822-4.52c0.397-1.568,0.871-3.148,1.419-4.744c2.092,0.848,4.059,1.482,5.902,1.906
			c1.842,0.424,3.81,0.635,5.901,0.635c3.138,0,5.603-0.586,7.396-1.756s2.689-2.951,2.689-5.342c0-1.195-0.213-2.191-0.635-2.988
			c-0.424-0.795-0.972-1.469-1.644-2.018c-0.673-0.547-1.433-1.008-2.278-1.381c-0.848-0.373-1.719-0.734-2.615-1.084
			L37.568,388.562z"/>
		<path fill="#FFFFFF" d="M69.615,372.274c1.842-0.299,3.66-0.447,5.453-0.447c1.893,0,3.735,0.148,5.528,0.447l10.01,24.877
			l10.31-24.877c1.494-0.299,3.236-0.447,5.229-0.447c1.892,0,3.709,0.148,5.453,0.447l2.241,41.162
			c-1.744,0.299-3.437,0.449-5.08,0.449s-3.212-0.15-4.706-0.449l-1.271-25.697l-8.366,18.975c-0.747,0.1-1.507,0.188-2.278,0.262
			c-0.773,0.074-1.582,0.111-2.429,0.111c-0.747,0-1.456-0.023-2.129-0.074c-0.672-0.049-1.357-0.15-2.054-0.299l-7.62-19.125
			l-1.195,25.848c-1.445,0.299-2.939,0.449-4.482,0.449c-1.595,0-3.163-0.15-4.706-0.449L69.615,372.274z"/>
		<path fill="#FFFFFF" d="M132.067,372.2c0.996-0.148,2.116-0.248,3.362-0.299c1.244-0.049,2.241-0.074,2.988-0.074
			c0.796,0,1.767,0.025,2.913,0.074c1.146,0.051,2.166,0.176,3.062,0.373l13.597,41.162c-1.793,0.299-3.761,0.449-5.901,0.449
			c-0.947,0-1.881-0.025-2.802-0.076c-0.922-0.049-1.856-0.174-2.802-0.373l-1.867-7.172h-13.372l-1.793,7.098
			c-0.797,0.148-1.744,0.273-2.839,0.373c-1.096,0.1-2.117,0.15-3.062,0.15c-1.494,0-3.287-0.15-5.379-0.449L132.067,372.2z
			 M142.451,398.048l-4.557-17.555l-4.557,17.555H142.451z"/>
		<path fill="#FFFFFF" d="M163.667,372.274c2.092-0.248,4.232-0.459,6.425-0.635c2.19-0.174,4.407-0.262,6.648-0.262
			c5.876,0,10.433,1.223,13.671,3.662c3.236,2.439,4.855,5.727,4.855,9.859c0,1.494-0.149,2.814-0.448,3.961
			c-0.299,1.145-0.723,2.154-1.271,3.025s-1.184,1.656-1.904,2.352c-0.723,0.699-1.482,1.371-2.278,2.018l-0.822,0.598l9.712,16.436
			c-0.997,0.1-2.03,0.197-3.101,0.299c-1.071,0.1-2.203,0.148-3.398,0.148c-1.942,0-3.762-0.148-5.454-0.447l-10.01-18.303
			l2.092-1.047c1.742-0.846,3.212-1.928,4.407-3.248s1.793-2.926,1.793-4.818c0-1.693-0.635-3.125-1.905-4.297
			c-1.27-1.17-3.025-1.756-5.267-1.756c-0.498,0-0.997,0.014-1.494,0.039c-0.498,0.025-1.096,0.086-1.793,0.186v33.393
			c-0.847,0.15-1.693,0.25-2.54,0.299s-1.718,0.074-2.614,0.074c-0.797,0-1.644-0.025-2.54-0.074s-1.818-0.148-2.764-0.299V372.274z
			"/>
		<path fill="#FFFFFF" d="M212.672,380.94h-11.878c-0.299-1.494-0.448-2.963-0.448-4.406c0-0.797,0.038-1.52,0.112-2.168
			c0.075-0.646,0.187-1.344,0.336-2.092h34.14c0.149,0.748,0.262,1.445,0.337,2.092c0.074,0.648,0.111,1.371,0.111,2.168
			c0,1.443-0.149,2.912-0.448,4.406h-11.803v32.496h-10.459V380.94z"/>
		<path fill="#FFFFFF" d="M252.368,388.562c-1.693-0.648-3.213-1.357-4.557-2.131c-1.345-0.771-2.491-1.691-3.437-2.764
			c-0.947-1.07-1.681-2.354-2.204-3.848c-0.522-1.492-0.784-3.285-0.784-5.377c0-2.541,0.436-4.781,1.308-6.725
			c0.87-1.941,2.103-3.572,3.697-4.893c1.594-1.318,3.511-2.316,5.752-2.988s4.756-1.008,7.546-1.008
			c2.539,0,4.917,0.223,7.134,0.672c2.216,0.447,4.544,1.096,6.984,1.941c-0.299,2.891-1.096,5.729-2.39,8.518
			c-0.747-0.299-1.508-0.598-2.279-0.896c-0.772-0.299-1.594-0.549-2.465-0.748c-0.872-0.197-1.855-0.359-2.951-0.484
			s-2.341-0.188-3.734-0.188c-0.848,0-1.707,0.074-2.578,0.225c-0.871,0.148-1.656,0.424-2.353,0.82
			c-0.698,0.4-1.271,0.984-1.719,1.756c-0.448,0.773-0.672,1.781-0.672,3.025c0,0.998,0.174,1.83,0.522,2.504
			c0.349,0.672,0.822,1.244,1.42,1.717c0.598,0.475,1.27,0.873,2.017,1.195c0.747,0.326,1.494,0.635,2.241,0.934l4.482,1.719
			c1.892,0.748,3.61,1.52,5.154,2.316c1.543,0.797,2.851,1.781,3.922,2.951c1.07,1.17,1.905,2.59,2.503,4.258
			s0.896,3.723,0.896,6.162c0,2.541-0.461,4.855-1.383,6.947s-2.253,3.885-3.996,5.379c-1.744,1.494-3.897,2.666-6.462,3.512
			c-2.565,0.846-5.517,1.27-8.853,1.27c-1.644,0-3.113-0.049-4.407-0.148c-1.296-0.102-2.528-0.262-3.698-0.486
			c-1.171-0.225-2.328-0.51-3.474-0.859c-1.146-0.348-2.341-0.771-3.586-1.27c0.149-1.443,0.423-2.951,0.822-4.52
			c0.397-1.568,0.871-3.148,1.419-4.744c2.092,0.848,4.059,1.482,5.902,1.906c1.842,0.424,3.81,0.635,5.901,0.635
			c3.138,0,5.603-0.586,7.396-1.756s2.689-2.951,2.689-5.342c0-1.195-0.213-2.191-0.635-2.988c-0.424-0.795-0.972-1.469-1.644-2.018
			c-0.673-0.547-1.433-1.008-2.278-1.381c-0.848-0.373-1.719-0.734-2.615-1.084L252.368,388.562z"/>
		<path fill="#FFFFFF" d="M300.552,414.333c-3.039,0-5.74-0.535-8.105-1.605c-2.367-1.07-4.359-2.553-5.977-4.445
			c-1.619-1.893-2.852-4.146-3.697-6.76c-0.848-2.615-1.271-5.465-1.271-8.555c0-3.088,0.424-5.951,1.271-8.59
			c0.846-2.641,2.078-4.918,3.697-6.836c1.617-1.916,3.609-3.424,5.977-4.52c2.365-1.096,5.066-1.645,8.105-1.645
			c3.088,0,5.826,0.549,8.217,1.645s4.395,2.604,6.014,4.52c1.617,1.918,2.852,4.195,3.697,6.836
			c0.848,2.639,1.271,5.502,1.271,8.59c0,3.09-0.424,5.939-1.271,8.555c-0.846,2.613-2.08,4.867-3.697,6.76
			c-1.619,1.893-3.623,3.375-6.014,4.445S303.64,414.333,300.552,414.333z M300.552,405.817c2.588,0,4.619-1.084,6.088-3.25
			s2.203-5.365,2.203-9.6c0-4.283-0.734-7.494-2.203-9.637c-1.469-2.141-3.5-3.213-6.088-3.213c-2.541,0-4.557,1.072-6.051,3.213
			c-1.494,2.143-2.242,5.354-2.242,9.637c0,4.234,0.748,7.434,2.242,9.6S298.011,405.817,300.552,405.817z"/>
		<path fill="#FFFFFF" d="M355.384,403.874c0.598,1.445,1.107,2.814,1.531,4.109c0.422,1.295,0.684,2.641,0.783,4.035
			c-1.195,0.498-2.291,0.896-3.287,1.195c-0.996,0.297-1.955,0.533-2.875,0.709c-0.922,0.174-1.855,0.285-2.803,0.336
			c-0.945,0.049-1.967,0.074-3.062,0.074c-3.486,0-6.461-0.609-8.926-1.83c-2.467-1.219-4.482-2.838-6.053-4.855
			c-1.568-2.018-2.715-4.357-3.436-7.021c-0.723-2.664-1.084-5.416-1.084-8.256c0-2.738,0.412-5.365,1.234-7.881
			c0.82-2.514,2.041-4.744,3.66-6.686c1.617-1.943,3.646-3.498,6.088-4.67c2.439-1.17,5.305-1.756,8.592-1.756
			c1.742,0,3.535,0.162,5.377,0.486s3.836,0.934,5.977,1.83c-0.1,1.146-0.348,2.354-0.746,3.623c-0.4,1.27-0.947,2.752-1.645,4.445
			c-1.494-0.547-2.826-0.959-3.996-1.232s-2.502-0.412-3.996-0.412c-1.844,0-3.361,0.387-4.557,1.158
			c-1.195,0.773-2.156,1.756-2.877,2.951c-0.723,1.195-1.221,2.516-1.494,3.959c-0.273,1.445-0.41,2.84-0.41,4.184
			c0,1.693,0.186,3.324,0.561,4.893c0.373,1.57,0.945,2.965,1.717,4.184c0.771,1.223,1.768,2.205,2.988,2.951
			c1.221,0.748,2.701,1.121,4.445,1.121c0.797,0,1.531-0.025,2.203-0.074c0.674-0.049,1.32-0.137,1.943-0.262
			c0.621-0.125,1.256-0.299,1.904-0.523C353.788,404.435,354.536,404.173,355.384,403.874z"/>
		<path fill="#FFFFFF" d="M365.542,372.2c0.846-0.148,1.693-0.248,2.541-0.299c0.846-0.049,1.742-0.074,2.689-0.074
			c0.896,0,1.779,0.025,2.65,0.074c0.871,0.051,1.73,0.15,2.578,0.299v41.236c-0.848,0.15-1.707,0.25-2.578,0.299
			s-1.754,0.074-2.65,0.074c-0.799,0-1.645-0.025-2.541-0.074s-1.793-0.148-2.689-0.299V372.2z M377.421,392.222l12.326-19.947
			c1.094-0.197,2.104-0.322,3.025-0.373c0.92-0.049,1.779-0.074,2.576-0.074c0.848,0,1.793,0.051,2.84,0.148
			c1.045,0.102,2.064,0.201,3.062,0.299L388.7,391.474l13.746,21.963c-1.047,0.1-2.105,0.199-3.176,0.299s-2.029,0.15-2.875,0.15
			c-0.797,0-1.656-0.025-2.578-0.076c-0.922-0.049-1.93-0.174-3.025-0.373L377.421,392.222z"/>
		<path fill="#FFFFFF" d="M408.272,372.274h27.342c0.1,0.748,0.188,1.445,0.262,2.092c0.074,0.648,0.111,1.371,0.111,2.168
			s-0.037,1.543-0.111,2.24s-0.162,1.42-0.262,2.166h-16.957v7.098h13.223c0.148,0.797,0.26,1.52,0.336,2.166
			c0.074,0.648,0.111,1.371,0.111,2.166c0,0.797-0.037,1.531-0.111,2.205c-0.076,0.672-0.188,1.406-0.336,2.203h-13.223v7.992
			h17.406c0.148,0.748,0.26,1.445,0.336,2.092c0.074,0.648,0.111,1.371,0.111,2.168c0,1.443-0.148,2.912-0.447,4.406h-27.791
			V372.274z"/>
		<path fill="#FFFFFF" d="M452.122,380.94h-11.877c-0.299-1.494-0.449-2.963-0.449-4.406c0-0.797,0.039-1.52,0.113-2.168
			c0.074-0.646,0.186-1.344,0.336-2.092h34.139c0.15,0.748,0.262,1.445,0.338,2.092c0.074,0.648,0.111,1.371,0.111,2.168
			c0,1.443-0.15,2.912-0.449,4.406h-11.803v32.496h-10.459V380.94z"/>
	</g>
	<g>
		<linearGradient id="SVGID_1_" gradientUnits="userSpaceOnUse" x1="212.3384" y1="301.2012" x2="296.7409" y2="216.7987">
			<stop  offset="0.0017" style="stop-color:#5EB030"/>
			<stop  offset="1" style="stop-color:#9BBA1E"/>
		</linearGradient>
		<path fill="url(#SVGID_1_)" stroke="#FFFFFF" stroke-width="4" stroke-miterlimit="10" d="M178.208,252.61
			c0,0-0.676,22.336,21.335,32.312c34.021,15.422,124.12,29.967,153.333-10.033c-14.002-22.596-60.254-46.488-69.254-52.893
			c-24.343-17.32-23.657,9.926-40.368,8.926s-66.711-8.926-66.711-8.926L178.208,252.61z"/>
		<linearGradient id="SVGID_2_" gradientUnits="userSpaceOnUse" x1="143.6987" y1="226.2002" x2="243.6332" y2="126.2657">
			<stop  offset="0.0017" style="stop-color:#5EB030"/>
			<stop  offset="1" style="stop-color:#9BBA1E"/>
		</linearGradient>
		<path fill="url(#SVGID_2_)" stroke="#FFFFFF" stroke-width="4" stroke-miterlimit="10" d="M178.208,252.61
			c0,0-44.203-8.424-40.544-83.602c-0.659-51.822,52.37-77.656,65.37-83.342c10.123,12.127,21,44.686,21,44.686s17.5,82.5,11,98
			S178.208,252.61,178.208,252.61z"/>
		<linearGradient id="SVGID_3_" gradientUnits="userSpaceOnUse" x1="183.646" y1="258.0479" x2="348.9329" y2="92.761">
			<stop  offset="0.0017" style="stop-color:#5EB030"/>
			<stop  offset="1" style="stop-color:#9BBA1E"/>
		</linearGradient>
		<path fill="url(#SVGID_3_)" stroke="#FFFFFF" stroke-width="4" stroke-miterlimit="10" d="M210.209,258.038
			c18.999,2,62.667,2.666,101.999-33.334c39.334-36,40.668-128,40.668-128s-62.334-0.334-129.334,36.666
			s-59.464,71.83-58.219,83.334c1.219,11.26,4.552,24.666,12.885,35.906C186.122,253.37,191.21,256.038,210.209,258.038z"/>
		<path fill="#FFFFFF" d="M281.14,182.208c-3.486-4.855-4.271-4.938-8.696-1.758c-4.104,3.045-11.509,8.441-15.486,11.369
			c-2.932-4.088-6.106-8.521-9.057-12.643c4.143-3.01,10.923-7.912,14.896-10.68c4.677-3.465,4.677-3.465,1.189-8.318
			c-3.487-4.855-4.271-4.936-8.697-1.756c-3.811,2.826-10.466,7.68-14.582,10.703c-2.104-2.939-3.548-4.957-3.832-5.354
			c-1.672-2.334-4.34-2.783-6.654-1.119c-3.381,2.428-6.766,4.844-10.135,7.285c-1.506,1.094-3.058,2.146-4.449,3.377
			c-4.771,4.211-7.984,9.443-9.558,15.594c-1.044,4.084-1.417,8.281-0.621,12.461c0.517,2.715,1.342,5.371,2.027,8.055
			c0.261,0.523,0.58,1.127,0.927,1.76c-10.441,7.414-26.641,21.484-39.537,44.186c-21.322,37.531-22.911,50.771-15.17,42.703
			c4.01-4.178,22.008-56.744,60.205-79.42c0.562,0.543,1.144,1.066,1.765,1.529c3.677,3.238,7.901,5.48,12.614,6.758
			c2.959,0.805,5.992,1.111,9.072,1.002c6.098-0.219,11.668-2.01,16.656-5.51c4.18-2.934,8.258-6.016,12.467-8.902
			c2.319-1.592,2.967-4.508,1.134-6.9c-0.274-0.359-1.563-2.141-3.458-4.775c3.993-2.904,11.517-8.354,15.79-11.33
			C284.628,187.062,284.628,187.062,281.14,182.208z"/>
	</g>
</g>
</svg>
