<?xml version="1.0" encoding="utf-8"?>
<!-- Generator: Adobe Illustrator 16.0.4, SVG Export Plug-In . SVG Version: 6.00 Build 0)  -->
<!DOCTYPE svg PUBLIC "-//W3C//DTD SVG 1.1//EN" "http://www.w3.org/Graphics/SVG/1.1/DTD/svg11.dtd">
<svg version="1.1" id="Layer_1" xmlns="http://www.w3.org/2000/svg" xmlns:xlink="http://www.w3.org/1999/xlink" x="0px" y="0px"
	 width="434.978px" height="170.991px" viewBox="0 0 434.978 170.991" enable-background="new 0 0 434.978 170.991"
	 xml:space="preserve">
<path style="fill: rgba(255,255,255,.5)" d="M301.739,80.817c-4.553,1.102-7.854,3.608-7.371,5.602c0.48,1.991,4.562,2.712,9.117,1.609
	c4.551-1.103,7.854-3.608,7.371-5.599C310.375,80.437,306.293,79.717,301.739,80.817z M212.752,29.247
	c-11.557,2.669-22.961,5.953-34.441,8.929c-2.982,0.774-8.977,5.008,1.272,2.7c11.57-2.604,31.553-8.173,34.441-8.929
	C216.913,31.191,223.866,26.681,212.752,29.247z M365.131,75.622v-2.021c0-1.022-0.623-1.941-1.572-2.321L226.434,16.43
	c-0.482-0.193-1.012-0.23-1.516-0.108l-95.031,22.961c-0.046,0.011-0.087,0.03-0.132,0.044c-0.057,0.018-0.113,0.035-0.17,0.057
	c-0.092,0.035-0.179,0.076-0.265,0.121c-0.048,0.024-0.096,0.048-0.142,0.075c-0.094,0.057-0.18,0.121-0.264,0.188
	c-0.034,0.027-0.071,0.051-0.104,0.08c-0.113,0.101-0.217,0.211-0.31,0.329c-0.019,0.024-0.033,0.053-0.052,0.077
	c-0.072,0.102-0.139,0.207-0.196,0.318c-0.009,0.017-0.021,0.029-0.028,0.046c-0.016,0.032-0.021,0.065-0.036,0.099
	c-0.041,0.094-0.077,0.19-0.106,0.29c-0.018,0.058-0.033,0.116-0.046,0.175c-0.02,0.089-0.032,0.18-0.041,0.271
	c-0.007,0.064-0.015,0.128-0.017,0.192c-0.001,0.022-0.006,0.044-0.006,0.066v9.566c0,0.942,0.529,1.804,1.369,2.229l7.022,3.561
	c0.06,3.259,1.874,6.718,6.831,10.032c17.591,11.764,42.196,25.113,72.471,40.991c30.275,15.878,50.463,24.542,70.27,16.596
	c0,0,23.076-6.96,44.062-14.613c3.211,10.685,12.422,12.6,19.293,14.022c7.084,1.467,9.002,2.36,9.002,5.847
	c0,0.324,0,1.312-1.426,2.688c-16.398,15.839-135.422,20.008-353.765,12.391c-1.637-0.041-3.045,1.238-3.103,2.894
	s1.237,3.045,2.894,3.103c75.23,2.624,134.586,3.724,181.477,3.724c138.367,0,168.154-9.574,176.666-17.794
	c2.162-2.088,3.258-4.444,3.258-7.004c0-8.867-7.645-10.45-13.785-11.722c-6.535-1.353-12.727-2.645-14.865-10.244
	c9.291-3.521,17.676-7.065,22.773-10.045C380.657,84.936,373.84,78.893,365.131,75.622z M225.317,21.368l132.855,53.143
	l-91.039,30.884L137.826,42.508L225.317,21.368z M267.756,118.075L132.975,49.743v-4.035L265.87,110.34
	c0.344,0.167,0.719,0.252,1.094,0.252c0.27,0,0.541-0.044,0.803-0.133l92.365-31.334v4.852L267.756,118.075z M319.11,66.379
	c-27.545-10.505-52.221-21.461-79.768-31.965c-1.443-0.552-5.504-0.628-4.076-0.084c26.48,10.099,53.486,22.815,80.01,33.116
	c-20.242,6.753-46.9,15.647-54.346,18.133c-7.844,2.617-11.953,6.396-3.387,3.648c20.602-6.609,41.045-13.694,61.566-20.543
	C320.284,68.293,320.209,66.798,319.11,66.379z"/>
</svg>
